<?xml version="1.0" standalone="no"?><!DOCTYPE svg PUBLIC "-//W3C//DTD SVG 1.1//EN" "http://www.w3.org/Graphics/SVG/1.1/DTD/svg11.dtd"><svg t="1716871671069" class="icon" viewBox="0 0 1024 1024" version="1.1" xmlns="http://www.w3.org/2000/svg" p-id="2824" xmlns:xlink="http://www.w3.org/1999/xlink" width="400" height="400"><path d="M918.4 0H105.6a64 64 0 0 0-64 64v896a64 64 0 0 0 64 64h812.8a64 64 0 0 0 64-64V64a64 64 0 0 0-64-64z m0 960H105.6V64h812.8z" p-id="2825"></path><path d="M153.6 153.28h718.08v143.68H153.6V153.28zM265.6 444.8a64 64 0 1 0 64 64 64 64 0 0 0-64-64z m30.08 72H273.6v22.08a8 8 0 0 1-16 0V516.8h-22.08a8 8 0 0 1 0-16h22.08V480a8 8 0 0 1 16 0v22.08h22.08a8 8 0 1 1 0 16z m189.76-72a64 64 0 1 0 64 64 64 64 0 0 0-64-64z m30.08 72h-59.84a8 8 0 0 1 0-16h60.16a8 8 0 1 1 0 16zM265.6 677.44a64 64 0 1 0 64 64 64 64 0 0 0-64-64z m25.6 81.28a8 8 0 1 1-12.16 10.56L265.6 753.6 251.52 768a8 8 0 1 1-12.16-10.56l15.04-17.28-15.04-17.28a8 8 0 0 1 12.16-10.56L265.28 728l13.76-15.68a8 8 0 0 1 12.16 10.56l-15.04 17.28z m194.24-80.32a64 64 0 1 0 64 64 64 64 0 0 0-64-64z m0 35.2a8 8 0 1 1-8 8 8 8 0 0 1 7.68-7.68z m0 57.28a8 8 0 1 1 8-8 8 8 0 0 1-8.32 8.32z m32-20.48h-61.76a8 8 0 1 1 0-16h60.16a8 8 0 0 1 0 16z m239.68-306.24a64 64 0 0 0-64 64V737.6a64 64 0 0 0 130.56 0V509.44a64 64 0 0 0-66.56-65.28zM787.2 657.6h-60.16a8 8 0 0 1 0-16h60.16a8 8 0 0 1 0 16z m0-37.76h-60.16a8 8 0 0 1 0-16h60.16a8 8 0 0 1 0 16z" p-id="2826"></path><path d="M295.68 500.8H273.6V480a8 8 0 0 0-16 0v22.08h-22.08a8 8 0 0 0 0 16h22.08v22.08a8 8 0 0 0 16 0v-22.08h22.08a8 8 0 1 0 0-16z m219.84 0h-59.84a8 8 0 0 0 0 16h60.16a8 8 0 1 0 0-16zM787.2 603.52h-60.16a8 8 0 0 0 0 16h60.16a8 8 0 0 0 0-16z m0 36.48h-60.16a8 8 0 0 0 0 16h60.16a8 8 0 0 0 0-16z m-496.96 72.64a8 8 0 0 0-11.2 0l-13.44 16.64-13.76-15.68a8 8 0 0 0-12.16 10.56l15.04 17.28-15.04 17.28a8 8 0 1 0 12.16 10.56l13.76-15.68 13.76 15.68a8 8 0 1 0 12.16-10.56l-15.04-17.28 15.04-17.28a8 8 0 0 0-1.28-11.52zM515.52 736h-59.84a8 8 0 1 0 0 16h60.16a8 8 0 0 0 0-16zM477.12 721.92a8 8 0 1 0 16 0 8 8 0 1 0-16 0zM477.12 763.2a8 8 0 1 0 16 0 8 8 0 1 0-16 0z" fill="#FFFFFF" p-id="2827"></path></svg>
