<?xml version="1.0" standalone="no"?><!DOCTYPE svg PUBLIC "-//W3C//DTD SVG 1.1//EN" "http://www.w3.org/Graphics/SVG/1.1/DTD/svg11.dtd"><svg t="1716825390067" class="icon" viewBox="0 0 1024 1024" version="1.1" xmlns="http://www.w3.org/2000/svg" p-id="6622" xmlns:xlink="http://www.w3.org/1999/xlink" width="400" height="400"><path d="M319.04768 225.6128h603.136c16.384 0 30.208 13.312 30.208 30.208v512.512c0 16.384-13.312 30.208-30.208 30.208h-603.136c-8.704 0-16.896-3.584-22.528-10.24l-217.088-249.344c-9.728-11.264-9.728-27.648-0.512-38.912l217.088-263.168c5.632-7.168 13.824-11.264 23.04-11.264z m572.928 59.904h-559.104l-192 232.448 191.488 220.16h559.616v-452.608z" p-id="6623"></path><path d="M467.82976 648.15616c-16.384 0-30.208-13.312-29.696-30.208 0-7.68 3.072-15.36 8.704-20.992l212.992-212.992c11.776-11.776 30.72-11.776 42.496 0 11.776 11.776 11.776 30.72 0 42.496l-212.992 212.992c-5.632 5.632-13.312 9.216-21.504 8.704z" p-id="6624"></path><path d="M438.13376 405.46816c0-8.192 3.072-15.36 8.704-20.992 11.776-11.776 30.72-11.776 42.496 0l212.992 212.992c11.776 11.776 11.776 30.72 0 42.496-11.776 11.776-30.72 11.776-42.496 0l-212.992-212.992c-5.632-5.632-8.704-13.312-8.704-21.504z" p-id="6625"></path></svg>
