<?xml version="1.0" standalone="no"?><!DOCTYPE svg PUBLIC "-//W3C//DTD SVG 1.1//EN" "http://www.w3.org/Graphics/SVG/1.1/DTD/svg11.dtd"><svg t="1710497854627" class="icon" viewBox="0 0 1024 1024" version="1.1" xmlns="http://www.w3.org/2000/svg" p-id="21750" xmlns:xlink="http://www.w3.org/1999/xlink" width="400" height="400"><path d="M863.445304 142.92006c-210.073506 0-302.000172-95.67913-302.000172-95.67913l-21.883403-22.729677-21.884426 22.729677c0 0-91.926666 98.005105-304.166511 98.005105l-52.544727 0 0 439.650205c0 113.916493 37.214577 282.492886 367.652428 410.048003l10.942213 4.544503 10.942213-4.544503c330.436828-127.555118 367.652428-296.131511 367.652428-410.048003L918.155347 142.92006 863.445304 142.92006zM539.561729 944.829869c-334.825788-129.827881-334.825788-298.455439-334.825788-364.479155L204.735941 190.811814l10.94119 0c190.355419 0 291.055912-72.948429 323.883575-102.549607 32.82664 29.602202 133.527133 102.549607 323.883575 102.549607l8.721639 0 2.218528 389.538901C874.385471 644.152832 874.385471 815.000965 539.561729 944.829869zM476.128001 568.983829l-116.030643-91.13258-43.770899 36.421514 190.407608 179.992397C594.273818 496.034377 762.742764 345.697393 762.742764 345.697393l-19.662829-22.783913C607.436606 395.809721 476.128001 568.983829 476.128001 568.983829z" fill="#080103" p-id="21751"></path></svg>