<?xml version="1.0" standalone="no"?><!DOCTYPE svg PUBLIC "-//W3C//DTD SVG 1.1//EN" "http://www.w3.org/Graphics/SVG/1.1/DTD/svg11.dtd"><svg t="1710485618656" class="icon" viewBox="0 0 1024 1024" version="1.1" xmlns="http://www.w3.org/2000/svg" p-id="18809" width="500" height="500" xmlns:xlink="http://www.w3.org/1999/xlink"><path d="M697.918 527.132V287.946c0-34.02-27.032-61.6-60.372-61.6H282.422c-33.342 0-60.372 27.58-60.372 61.6v456.568c0 34.02 27.03 61.6 60.372 61.6 0 0 330.926-0.14 389.578-0.14" fill="#4988FD" p-id="18810"></path><path d="M282.434 836.114c-49.844 0-90.384-41.092-90.384-91.6V287.946c0-50.508 40.542-91.6 90.372-91.6h355.126c49.83 0 90.372 41.092 90.372 91.6v239.186h-60V287.946c0-17.424-13.626-31.6-30.372-31.6H282.422c-16.748 0-30.372 14.176-30.372 31.6v456.568c0 17.424 13.626 31.6 30.372 31.6-0.012 0 330.924-0.14 389.578-0.14v60c-58.65-0.002-389.566 0.14-389.566 0.14z" fill="#4988FD" p-id="18811"></path><path d="M658 662m-174 0a174 174 0 1 0 348 0 174 174 0 1 0-348 0Z" fill="#DFECFD" p-id="18812"></path><path d="M658 836c-95.944 0-174-78.056-174-174S562.056 488 658 488s174 78.056 174 174-78.056 174-174 174z m0-288c-62.86 0-114 51.14-114 114s51.14 114 114 114 114-51.14 114-114-51.14-114-114-114z" fill="#DFECFD" p-id="18813"></path><path d="M722.046 690h-127.12c-15.464 0-28-12.536-28-28s12.536-28 28-28h127.12c15.464 0 28 12.536 28 28s-12.534 28-28 28z" fill="#4988FD" p-id="18814"></path><path d="M422.048 465.184h-127.12c-15.464 0-28-12.536-28-28s12.536-28 28-28h127.12c15.464 0 28 12.536 28 28s-12.536 28-28 28zM512 368H294.928c-15.464 0-28-12.536-28-28s12.536-28 28-28H512c15.464 0 28 12.536 28 28s-12.536 28-28 28z" fill="#FFFFFF" p-id="18815"></path></svg>
