<?xml version="1.0" standalone="no"?><!DOCTYPE svg PUBLIC "-//W3C//DTD SVG 1.1//EN" "http://www.w3.org/Graphics/SVG/1.1/DTD/svg11.dtd"><svg t="1710477807631" class="icon" viewBox="0 0 1024 1024" version="1.1" xmlns="http://www.w3.org/2000/svg" p-id="5351" xmlns:xlink="http://www.w3.org/1999/xlink" width="200" height="200"><path d="M503.7 206.2c0.5 3 0.8 6.2 0.8 9.3 0 30.6-24.8 55.4-55.4 55.4s-55.4-24.8-55.4-55.4c0-3.9 0.4-7.7 1.2-11.4-13 11.6-21 27.4-21 44.8 0 35.5 33.3 64.3 74.3 64.3s74.3-28.8 74.3-64.3c0-16.4-7.1-31.3-18.8-42.7z" p-id="5352"></path><path d="M449.1 183.3m-55.4 0a55.4 55.4 0 1 0 110.8 0 55.4 55.4 0 1 0-110.8 0Z" p-id="5353"></path><path d="M596.7 403.9H424.9c-9.8 0-17.8-10.3-17.8-23s8-23 17.8-23h171.9c9.8 0 17.8 10.3 17.8 23s-8 23-17.9 23z" p-id="5354"></path><path d="M282.2 380.9a31 31.7 0 1 0 62 0 31 31.7 0 1 0-62 0Z" p-id="5355"></path><path d="M596.3 531.4H424.5c-9.8 0-17.8-10.3-17.8-23s8-23 17.8-23h171.9c9.8 0 17.8 10.3 17.8 23s-8 23-17.9 23z" p-id="5356"></path><path d="M281.7 508.4a31 31.7 0 1 0 62 0 31 31.7 0 1 0-62 0Z" p-id="5357"></path><path d="M596.3 659.4H424.5c-9.8 0-17.8-10.3-17.8-23s8-23 17.8-23h171.9c9.8 0 17.8 10.3 17.8 23s-8 23-17.9 23z" p-id="5358"></path><path d="M281.7 636.4a31 31.7 0 1 0 62 0 31 31.7 0 1 0-62 0Z" p-id="5359"></path><path d="M596.3 786.9H424.5c-9.8 0-17.8-10.3-17.8-23s8-23 17.8-23h171.9c9.8 0 17.8 10.3 17.8 23s-8 23-17.9 23z" p-id="5360"></path><path d="M281.7 763.9a31 31.7 0 1 0 62 0 31 31.7 0 1 0-62 0Z" p-id="5361"></path><path d="M619 895H277.3c-47 0-85.2-40.3-85.2-89.7V322c0-49.5 38.2-89.7 85.2-89.7h31.1c12.3 0 22.2 10 22.2 22.2 0 12.3-10 22.2-22.2 22.2h-31.1c-23.7 0-43 20.3-43 45.3v483.2c0 25 19.3 45.3 43 45.3H619c23.7 0 43-20.3 43-45.3V322c0-25-19.3-45.3-43-45.3h-31.1c-12.3 0-22.2-10-22.2-22.2 0-12.3 10-22.2 22.2-22.2H619c47 0 85.2 40.3 85.2 89.7v483.2c0 49.5-38.2 89.8-85.2 89.8z" p-id="5362"></path><path d="M753.1 895.6h-26.7c-12.3 0-22.3-10-22.3-22.3s10-22.3 22.3-22.3h26.7c22 0 39.9-20.4 39.9-45.4v-484c0-25-17.9-45.4-39.9-45.4h-26.7c-12.3 0-22.3-10-22.3-22.3s10-22.3 22.3-22.3h26.7c43.6 0 79.1 40.3 79.1 89.9v484.1c0 49.7-35.5 90-79.1 90z" p-id="5363"></path></svg>