<?xml version="1.0" standalone="no"?><!DOCTYPE svg PUBLIC "-//W3C//DTD SVG 1.1//EN" "http://www.w3.org/Graphics/SVG/1.1/DTD/svg11.dtd"><svg t="1725621243265" class="icon" viewBox="0 0 1024 1024" version="1.1" xmlns="http://www.w3.org/2000/svg" p-id="5674" xmlns:xlink="http://www.w3.org/1999/xlink" width="16" height="16"><path d="M307.2 354.986667h-3.413333c-23.893333 0-40.96-17.066667-40.96-40.96 0-23.893333 17.066667-40.96 40.96-40.96h3.413333c23.893333 0 40.96 17.066667 40.96 40.96 0 23.893333-17.066667 40.96-40.96 40.96z" fill="#898989" p-id="5675"></path><path d="M931.84 928.426667H85.333333V85.333333h843.093334v843.093334h3.413333z m-788.48-58.026667h727.04V143.36H143.36v727.04z" fill="#898989" p-id="5676"></path><path d="M508.586667 549.546667h-10.24c-47.786667-17.066667-61.44-37.546667-68.266667-61.44-6.826667-13.653333-10.24-23.893333-30.72-40.96-27.306667-20.48-40.96-10.24-81.92 30.72-10.24 10.24-20.48 20.48-34.133333 30.72-61.44 47.786667-163.84 44.373333-167.253334 44.373333-17.066667 0-27.306667-13.653333-27.306666-30.72 0-17.066667 17.066667-27.306667 30.72-27.306667 23.893333 0 92.16 0 126.293333-30.72 10.24-10.24 20.48-17.066667 30.72-27.306666 37.546667-34.133333 85.333333-85.333333 157.013333-37.546667 37.546667 23.893333 47.786667 47.786667 54.613334 64.853333 6.826667 13.653333 6.826667 20.48 34.133333 27.306667 17.066667 3.413333 23.893333 20.48 17.066667 37.546667-6.826667 13.653333-17.066667 20.48-30.72 20.48z" fill="#898989" p-id="5677"></path><path d="M413.013333 634.88c-10.24 0-20.48-3.413333-23.893333-13.653333-10.24-13.653333-6.826667-30.72 6.826667-40.96 81.92-54.613333 242.346667-160.426667 269.653333-184.32 44.373333-34.133333 129.706667-58.026667 177.493333-34.133334 44.373333 20.48 75.093333 81.92 78.506667 88.746667 6.826667 13.653333 3.413333 30.72-13.653333 40.96-13.653333 6.826667-30.72 3.413333-40.96-13.653333-10.24-20.48-34.133333-54.613333-54.613334-61.44-23.893333-10.24-81.92 0-116.053333 27.306666-40.96 30.72-266.24 184.32-276.48 187.733334 3.413333 3.413333 0 3.413333-6.826667 3.413333z" fill="#898989" p-id="5678"></path></svg>